<svg width="600" height="400" viewBox="0 0 600 400" xmlns="http://www.w3.org/2000/svg" xmlns:xlink="http://www.w3.org/1999/xlink">
  
  <defs>
    
    <radialGradient id="globeOceanGradient" cx="50%" cy="50%" r="50%" fx="50%" fy="50%">
      <stop offset="0%" style="stop-color:#e0ffff;stop-opacity:1"/>
      <stop offset="100%" style="stop-color:#ccffff;stop-opacity:1"/> 
    </radialGradient>
    
    
    <path id="landShape" d="M 220 180 C 180 150, 150 200, 200 250 C 250 280, 300 250, 350 220 C 380 190, 350 150, 300 130 C 250 110, 200 150, 220 180 Z M 400 250 C 380 280, 350 300, 320 280 C 300 260, 310 230, 340 210 C 370 190, 400 200, 400 250 Z"/>
    
    
    <path id="jsShape" d="M20 20L0 0h15a4.99 4.99 0 0 1 5 5z"/>
    <filter id="shadowA" x="-27.5%" y="-32.5%" width="160%" height="160%">
        <feGaussianBlur in="SourceAlpha" stdDeviation="2"/>
        <feOffset dx="1" dy="-1" result="B"/>
        <feFlood flood-color="#000" flood-opacity=".2"/>
        <feComposite in2="B" operator="in" result="C"/>
        <feMerge><feMergeNode in="C"/><feMergeNode in="SourceGraphic"/></feMerge>
    </filter>
    <filter id="shadowB" x="-6%" y="-4.6875%" width="116%" height="112.5%">
        <feGaussianBlur in="SourceAlpha" stdDeviation="1"/>
        <feOffset dx="2" dy="2" result="B"/>
        <feFlood flood-color="#000" flood-opacity=".2"/>
        <feComposite in2="B" operator="in" result="C"/><feMerge><feMergeNode in="C"/><feMergeNode in="SourceGraphic"/></feMerge>
    </filter>
    
    <symbol id="logoJS" overflow="visible" viewBox="0 0 51 65">
      <g transform="matrix(-1 0 0 -1 50 20)">
        <use xlink:href="#jsShape" fill="#ffe082" stroke="none" filter="url(#shadowA)"/>
      </g>
      <path d="M50 20L30 0H5a4.99 4.99 0 0 0-5 5v54a4.99 4.99 0 0 0 5 5h40a4.99 4.99 0 0 0 5-5z" fill="#ffca28" stroke="none" filter="url(#shadowB)"/>
      <g transform="matrix(-1 0 0 -1 50 20)">
        <use xlink:href="#jsShape" fill="#ffeb3b" stroke="none" filter="url(#shadowA)"/>
        <use xlink:href="#jsShape" fill="#ffd54f" stroke="none" filter="url(#shadowA)"/>
      </g>
      <path d="M19.039 43.947V32.723h3.341v11.224q0 1.548-.685 2.734-.685 1.186-1.932 1.832-1.247.646-2.817.646-2.572 0-4.009-1.308-1.437-1.308-1.437-3.703h3.363q0 1.191.501 1.759.501.568 1.581.568.958 0 1.526-.657.568-.657.568-1.871zm14.609.735q0-.947-.668-1.453-.668-.507-2.405-1.069-1.737-.562-2.75-1.108-2.762-1.492-2.762-4.02 0-1.314.74-2.344.741-1.03 2.127-1.609 1.386-.579 3.112-.579 1.737 0 3.096.629 1.358.629 2.11 1.776.752 1.147.752 2.606h-3.34q0-1.114-.701-1.731-.702-.618-1.971-.618-1.225 0-1.904.518-.679.518-.679 1.364 0 .791.796 1.325.796.535 2.344 1.002 2.851.857 4.153 2.127Q37 42.767 37 44.66q0 2.105-1.592 3.302-1.592 1.197-4.287 1.197-1.871 0-3.407-.685-1.537-.685-2.344-1.876-.807-1.191-.807-2.762h3.352q0 2.684 3.207 2.684 1.191 0 1.86-.484.668-.484.668-1.353z" fill="#000" stroke="none"/>
    </symbol>
    
    <filter id="letterShadow">
      <feDropShadow dx="3" dy="3" stdDeviation="2" flood-color="#000000" flood-opacity="0.5"/>
    </filter>
    
  </defs>

  
  <circle cx="300" cy="200" r="160" fill="url(#globeOceanGradient)"/> 
  <circle cx="300" cy="200" r="155" fill="none" stroke="#e0ffff" stroke-width="2"/> 

  
  <g transform="translate(100, 50) scale(0.6)">
    <use xlink:href="#landShape" fill="#1e8449" transform="translate(0, 0)"/> 
    <use xlink:href="#landShape" fill="#1e8449" transform="translate(100, 0) rotate(90 300 200)"/>
  </g>

  
  <path d="M 300 45 A 155 155 0 0 1 300 355 M 300 45 A 155 155 0 0 0 300 355" stroke="#cccccc" stroke-width="1" fill="none" opacity="0.7"/>
  <path d="M 145 200 A 155 155 0 0 1 455 200 M 145 200 A 155 155 0 0 0 455 200" stroke="#cccccc" stroke-width="1" fill="none" opacity="0.7"/>

  
  <text x="210" y="190" font-family="Arial, sans-serif" font-size="120" font-weight="bold" fill="#0077b3" filter="url(#letterShadow)">Z</text>

  
  <text x="320" y="190" font-family="Arial, sans-serif" font-size="120" font-weight="bold" fill="#cc3333" filter="url(#letterShadow)">B</text>

  
  <g transform="translate(320, 220) scale(1.5)"> 
    <use xlink:href="#logoJS" width="51" height="65"/>
  </g>
</svg>